<?xml version="1.0" standalone="no"?><?xml-stylesheet type="text/css" href="https://www.processon.com/themes/default/mind/icons/icons.css" ?><!DOCTYPE svg PUBLIC
        "-//W3C//DTD SVG 1.1//EN" "http://www.w3.org/Graphics/SVG/1.1/DTD/svg11.dtd">
<svg xmlns="http://www.w3.org/2000/svg" xlink="http://www.w3.org/1999/xlink" id="mind-svg-view-con" version="1.1"
     width="737px" height="190px">
    <defs></defs>
    <g transform="translate(-9644.5, -9905)" id="sdjakdjak3">
        <defs></defs>
        <g class="svg-topic-con" transform="translate(0.5,0.5)">
            <path part="right" sub="true" id="line_ad9909f61748"
                  d="M 10000 10000 C 10000 10000 10010 10000 10154.5 10000" stroke="rgb(170,170,170)" fill="none"
                  stroke-width="1"></path>
            <path part="left" sub="true" id="line_7ed0b9df83cb" d="M 10000 10000 C 10000 10000 9990 10000 9845.5 10000"
                  stroke="rgb(170,170,170)" fill="none" stroke-width="1"></path>
        </g>
        <g class="svg-connection-con" transform="translate(0.5,0.5)"></g>
        <g class="svg-freesums-con" transform="translate(0.5,0.5)"></g>
        <g class="svg-freebos-con" transform="translate(0.5,0.5)"></g>
    </g>
    <g id="e6eea097508e">
        <rect x="30" y="30" rx="1px" ry="1px" width="70" height="27" style="fill: transparent; stroke:none;"></rect>
        <g>
            <text text-anchor="start" align="top" anchor="start" font-family="微软雅黑" font-size="13px"
                  font-weight="normal" font-style="normal" fill="rgb(68, 68, 68)">
                <tspan x="39" y="47.3">
                    <tspan>用户注册</tspan>
                </tspan>
            </text>
        </g>
    </g>
    <g id="7018aa97c877">
        <rect x="30" y="64.5" rx="1px" ry="1px" width="70" height="27" style="fill: transparent; stroke:none;"></rect>
        <g>
            <text text-anchor="start" align="top" anchor="start" font-family="微软雅黑" font-size="13px"
                  font-weight="normal" font-style="normal" fill="rgb(68, 68, 68)">
                <tspan x="39" y="81.8">
                    <tspan>用户登录</tspan>
                </tspan>
            </text>
        </g>
    </g>
    <g id="32cd1f064219">
        <rect x="30" y="99" rx="1px" ry="1px" width="70" height="27" style="fill: transparent; stroke:none;"></rect>
        <g>
            <text text-anchor="start" align="top" anchor="start" font-family="微软雅黑" font-size="13px"
                  font-weight="normal" font-style="normal" fill="rgb(68, 68, 68)">
                <tspan x="39" y="116.3">
                    <tspan>接收消息</tspan>
                </tspan>
            </text>
        </g>
    </g>
    <g id="79357bf34180">
        <rect x="30" y="133.5" rx="1px" ry="1px" width="70" height="27" style="fill: transparent; stroke:none;"></rect>
        <g>
            <text text-anchor="start" align="top" anchor="start" font-family="微软雅黑" font-size="13px"
                  font-weight="normal" font-style="normal" fill="rgb(68, 68, 68)">
                <tspan x="39" y="150.8">
                    <tspan>发送消息</tspan>
                </tspan>
            </text>
        </g>
    </g>
    <g id="7ed0b9df83cb">
        <rect x="128" y="70.5" rx="5px" ry="5px" width="73" height="49"
              style="fill: #ffffff; stroke:rgb(187,187,187);stroke-width:1px;"></rect>
        <g>
            <text text-anchor="start" align="top" anchor="start" font-family="微软雅黑" font-size="17px"
                  font-weight="normal" font-style="normal" fill="rgb(68, 68, 68)">
                <tspan x="139" y="101.7">
                    <tspan>客户端</tspan>
                </tspan>
            </text>
        </g>
    </g>
    <g id="ad9909f61748">
        <rect x="510" y="70.25" rx="5px" ry="5px" width="73" height="49"
              style="fill: #ffffff; stroke:rgb(187,187,187);stroke-width:1px;"></rect>
        <g>
            <text text-anchor="start" align="top" anchor="start" font-family="微软雅黑" font-size="17px"
                  font-weight="normal" font-style="normal" fill="rgb(68, 68, 68)">
                <tspan x="521" y="101.45">
                    <tspan>服务端</tspan>
                </tspan>
            </text>
        </g>
    </g>
    <g id="e41a80d250e1">
        <rect x="611" y="47" rx="1px" ry="1px" width="83" height="27" style="fill: transparent; stroke:none;"></rect>
        <g>
            <text text-anchor="start" align="top" anchor="start" font-family="微软雅黑" font-size="13px"
                  font-weight="normal" font-style="normal" fill="rgb(68, 68, 68)">
                <tspan x="620" y="64.3">
                    <tspan>启动和关闭</tspan>
                </tspan>
            </text>
        </g>
    </g>
    <g id="dae16765cd6e">
        <rect x="611" y="81.5" rx="1px" ry="1px" width="70" height="27" style="fill: transparent; stroke:none;"></rect>
        <g>
            <text text-anchor="start" align="top" anchor="start" font-family="微软雅黑" font-size="13px"
                  font-weight="normal" font-style="normal" fill="rgb(68, 68, 68)">
                <tspan x="620" y="98.8">
                    <tspan>建立连接</tspan>
                </tspan>
            </text>
        </g>
    </g>
    <g id="46f8dd99e5b6">
        <rect x="611" y="116" rx="1px" ry="1px" width="96" height="27" style="fill: transparent; stroke:none;"></rect>
        <g>
            <text text-anchor="start" align="top" anchor="start" font-family="微软雅黑" font-size="13px"
                  font-weight="normal" font-style="normal" fill="rgb(68, 68, 68)">
                <tspan x="620" y="133.3">
                    <tspan>监听文本消息</tspan>
                </tspan>
            </text>
        </g>
    </g>
    <g transform="translate(30, 30)" id="sdjakdjak0">
        <g id="subline_7ed0b9df83cb" transform="translate(0.5,-1.5)">
            <path id="line_e6eea097508e" d="M 96 64.5 L 78 64.5 L 78 17 A 4 4 0 0 0 74 13 L 70 13" p="7ed0b9df83cb"
                  stroke="rgb(140,140,140)" fill="none" stroke-linecap="square" stroke-width="1"></path>
            <path id="line_7018aa97c877" d="M 96 64.5 L 78 64.5 L 78 52 A 4 4 0 0 0 74 48 L 70 48" p="7ed0b9df83cb"
                  stroke="rgb(140,140,140)" fill="none" stroke-linecap="square" stroke-width="1"></path>
            <path id="line_32cd1f064219" d="M 96 64.5 L 78 64.5 L 78 78 A 4 4 0 0 1 74 82 L 70 82" p="7ed0b9df83cb"
                  stroke="rgb(140,140,140)" fill="none" stroke-linecap="square" stroke-width="1"></path>
            <path id="line_79357bf34180" d="M 96 64.5 L 78 64.5 L 78 113 A 4 4 0 0 1 74 117 L 70 117" p="7ed0b9df83cb"
                  stroke="rgb(140,140,140)" fill="none" stroke-linecap="square" stroke-width="1"></path>
        </g>
        <g transform="translate(0.5,-0.5)"></g>
        <g class="svg-summary-con" transform="translate(0.5,-0.5)"></g>
        <g class="svg-boundary-con" transform="translate(0.5,-0.5)"></g>
    </g>
    <g transform="translate(510, 47)" id="sdjakdjak1">
        <g id="subline_ad9909f61748" transform="translate(0.5,-1.5)">
            <path id="line_e41a80d250e1" d="M 73 47.5 L 91 47.5 L 91 17 A 4 4 0 0 1 95 13 L 101 13" p="ad9909f61748"
                  stroke="rgb(140,140,140)" fill="none" stroke-linecap="square" stroke-width="1"></path>
            <path id="line_dae16765cd6e" d="M 73 47.5 L 91 47.5 L 91 47.5 L 101 47.5" p="ad9909f61748"
                  stroke="rgb(140,140,140)" fill="none" stroke-linecap="square" stroke-width="1"></path>
            <path id="line_46f8dd99e5b6" d="M 73 47.5 L 91 47.5 L 91 78 A 4 4 0 0 0 95 82 L 101 82" p="ad9909f61748"
                  stroke="rgb(140,140,140)" fill="none" stroke-linecap="square" stroke-width="1"></path>
        </g>
        <g transform="translate(0.5,-0.5)"></g>
        <g class="svg-summary-con" transform="translate(0.5,-0.5)"></g>
        <g class="svg-boundary-con" transform="translate(0.5,-0.5)"></g>
    </g>
    <g transform="translate(281, 61)" id="sdjakdjak2">
        <g id="subline_root" transform="translate(0.5,-1.5)"></g>
        <g transform="translate(0.5,-0.5)"></g>
        <g class="svg-summary-con" transform="translate(0.5,-0.5)"></g>
        <g class="svg-boundary-con" transform="translate(0.5,-0.5)"></g>
    </g>
    <g id="root">
        <rect x="281" y="61" rx="5px" ry="5px" width="149" height="68" style="fill: #50C28B; stroke:none;"></rect>
        <g>
            <text text-anchor="start" align="top" anchor="start" font-family="微软雅黑" font-size="25px"
                  font-weight="normal" font-style="normal" fill="rgb(255, 255, 255)">
                <tspan x="293" y="105">
                    <tspan>网络聊天室</tspan>
                </tspan>
            </text>
        </g>
    </g>
</svg>